<svg width="32" height="32" viewBox="0 0 32 32" fill="none" xmlns="http://www.w3.org/2000/svg">
<g clip-path="url(#clip0_3_319)">
<path d="M6.34842 32H25.6517C26.8003 32 27.7566 31.1215 27.7566 30.0418V6.62852C27.7566 5.54863 26.8003 4.66086 25.6517 4.66086H22.4696V6.44863C22.4742 6.75896 22.2294 7.01575 21.9193 7.02608H10.043C9.72668 7.01847 9.47125 6.76493 9.46092 6.44863V4.66086H6.34842C5.19978 4.66086 4.24353 5.54863 4.24353 6.62852V30.0418C4.24353 31.1215 5.19978 32 6.34842 32ZM10.6435 14.0522C10.6435 13.7448 10.8927 13.4956 11.2001 13.4956H14.0522V10.6435C14.0522 10.3361 14.3014 10.0869 14.6087 10.0869H17.3914C17.6987 10.0869 17.9479 10.3361 17.9479 10.6435V13.4956H20.8001C21.1074 13.4956 21.3566 13.7448 21.3566 14.0522V16.8348C21.3566 17.1421 21.1074 17.3913 20.8001 17.3913H17.9479V20.2435C17.9479 20.5508 17.6987 20.8 17.3914 20.8H14.6087C14.3014 20.8 14.0522 20.5508 14.0522 20.2435V17.3913H11.2001C10.8927 17.3913 10.6435 17.1421 10.6435 16.8348V14.0522ZM10.8702 23.6522H21.1299C21.4375 23.6522 21.6865 23.9013 21.6865 24.2087C21.6865 24.516 21.4375 24.7652 21.1299 24.7652H10.8702C10.5626 24.7652 10.3136 24.516 10.3136 24.2087C10.3136 23.9013 10.5626 23.6522 10.8702 23.6522ZM8.7832 26.4348H23.2169C23.5245 26.4348 23.7734 26.684 23.7734 26.9913C23.7734 27.2986 23.5245 27.5478 23.2169 27.5478H8.7832C8.4756 27.5478 8.22668 27.2986 8.22668 26.9913C8.22668 26.684 8.4756 26.4348 8.7832 26.4348Z" fill="white"/>
<path d="M21.3565 2.15652H18.7521C18.4902 2.15625 18.2635 1.97337 18.2084 1.71712C17.9931 0.722556 17.0486 1.23676e-06 15.9622 1.23676e-06H15.9554C14.898 -0.00108572 13.9744 0.714403 13.7114 1.73832C13.648 1.98424 13.4263 2.15625 13.1722 2.15652H10.5739V5.91304H21.3565V2.15652Z" fill="white"/>
<path d="M15.1652 16.8348V19.687H16.8347V16.8348C16.8347 16.5275 17.0839 16.2783 17.3913 16.2783H20.2434V14.6087H17.3913C17.0839 14.6087 16.8347 14.3595 16.8347 14.0522V11.2H15.1652V14.0522C15.1652 14.3595 14.916 14.6087 14.6086 14.6087H11.7565V16.2783H14.6086C14.916 16.2783 15.1652 16.5275 15.1652 16.8348Z" fill="white"/>
</g>
<defs>
<clipPath id="clip0_3_319">
<rect width="32" height="32" fill="white"/>
</clipPath>
</defs>
</svg>
