<svg width="32" height="32" viewBox="0 0 32 32" fill="none" xmlns="http://www.w3.org/2000/svg">
<g clip-path="url(#clip0_3_328)">
<path d="M15.9909 4.21824C9.01587 -1.88242 0.14723 3.4778 0.00180337 10.7444C-0.0352563 12.5964 0.499328 14.4003 1.56343 16.0633H8.46066L9.68744 14.0186C10.0437 13.425 10.9057 13.4059 11.2821 13.9977L13.8705 18.0651L17.6435 10.1C17.9726 9.40497 18.9532 9.38291 19.3161 10.0569L22.5503 16.0633H30.4184C36.2468 6.95403 24.7279 -3.42336 15.9909 4.21824Z" fill="white"/>
<path d="M21.1651 17.4451L18.5443 12.5779L14.8382 20.4017C14.5229 21.0674 13.5956 21.1252 13.2002 20.5037L10.5148 16.2838L9.79525 17.483C9.62582 17.7654 9.32072 17.9381 8.99143 17.9381H3.04639C3.23275 18.1331 2.23951 17.1419 15.3297 30.1643C15.6953 30.5281 16.2863 30.5281 16.652 30.1643C29.5407 17.3423 28.7493 18.1328 28.9353 17.9381H21.9904C21.6455 17.9382 21.3286 17.7488 21.1651 17.4451Z" fill="white"/>
</g>
<defs>
<clipPath id="clip0_3_328">
<rect width="32" height="32" fill="white"/>
</clipPath>
</defs>
</svg>
